<?xml version="1.0" encoding="UTF-8" standalone="no"?>
<!-- Created with Inkscape (http://www.inkscape.org/) -->

<svg
   xmlns:dc="http://purl.org/dc/elements/1.1/"
   xmlns:cc="http://creativecommons.org/ns#"
   xmlns:rdf="http://www.w3.org/1999/02/22-rdf-syntax-ns#"
   xmlns:svg="http://www.w3.org/2000/svg"
   xmlns="http://www.w3.org/2000/svg"
   xmlns:xlink="http://www.w3.org/1999/xlink"
   xmlns:sodipodi="http://sodipodi.sourceforge.net/DTD/sodipodi-0.dtd"
   xmlns:inkscape="http://www.inkscape.org/namespaces/inkscape"
   width="2000"
   height="1500"
   id="svg2"
   version="1.1"
   inkscape:version="0.48.5 r10040"
   sodipodi:docname="Circuit.svg">
  <defs
     id="defs4">
    <pattern
       inkscape:collect="always"
       xlink:href="#Strips1_1"
       id="pattern5387"
       patternTransform="matrix(10,0,0,10,-138.15625,-1244.5)" />
    <pattern
       inkscape:stockid="Stripes 1:1"
       id="Strips1_1"
       patternTransform="translate(0,0) scale(10,10)"
       height="1"
       width="2"
       patternUnits="userSpaceOnUse"
       inkscape:collect="always">
      <rect
         id="rect4653"
         height="2"
         width="1"
         y="-0.5"
         x="0"
         style="fill:black;stroke:none" />
    </pattern>
    <inkscape:path-effect
       effect="envelope"
       id="path-effect3050"
       is_visible="true"
       yy="true"
       xx="true"
       bendpath1="m -259.08421,394.84135 1838.37061,0"
       bendpath2="m 1579.2864,394.84135 0,1268.98335"
       bendpath3="m -259.08421,1663.8247 1838.37061,0"
       bendpath4="m -259.08421,394.84135 0,1268.98335" />
    <inkscape:path-effect
       effect="envelope"
       id="path-effect3036"
       is_visible="true"
       yy="false"
       xx="true"
       bendpath1="m -259.08421,394.84135 1838.37061,0"
       bendpath2="m 1579.2864,394.84135 0,1268.98335"
       bendpath3="m -259.08421,1663.8247 1838.37061,0"
       bendpath4="m -259.08421,394.84135 0,1268.98335" />
    <inkscape:path-effect
       effect="ruler"
       id="path-effect3034"
       is_visible="true"
       unit="px"
       mark_distance="20"
       mark_length="14"
       minor_mark_length="7"
       major_mark_steps="5"
       shift="0"
       offset="0"
       mark_dir="left"
       border_marks="both" />
    <pattern
       patternUnits="userSpaceOnUse"
       width="224.84375"
       height="11.375"
       patternTransform="translate(7.22968,557.53758)"
       id="pattern5384">
      <rect
         ry="0"
         y="0.061157227"
         x="0.057174683"
         height="11.260323"
         width="224.72481"
         id="rect3932"
         style="fill:url(#pattern5387);fill-opacity:1;stroke:#000000;stroke-width:0.1;stroke-miterlimit:4;stroke-opacity:1;stroke-dasharray:none" />
    </pattern>
  </defs>
  <sodipodi:namedview
     id="base"
     pagecolor="#ffffff"
     bordercolor="#666666"
     borderopacity="1.0"
     inkscape:pageopacity="1"
     inkscape:pageshadow="2"
     inkscape:zoom="0.24418754"
     inkscape:cx="1168.2184"
     inkscape:cy="664.96666"
     inkscape:document-units="px"
     inkscape:current-layer="layer1"
     showgrid="false"
     fit-margin-top="0"
     fit-margin-left="0"
     fit-margin-right="0"
     fit-margin-bottom="0"
     inkscape:window-width="1366"
     inkscape:window-height="705"
     inkscape:window-x="-8"
     inkscape:window-y="-8"
     inkscape:window-maximized="1" />
  <metadata
     id="metadata7">
    <rdf:RDF>
      <cc:Work
         rdf:about="">
        <dc:format>image/svg+xml</dc:format>
        <dc:type
           rdf:resource="http://purl.org/dc/dcmitype/StillImage" />
        <dc:title></dc:title>
      </cc:Work>
    </rdf:RDF>
  </metadata>
  <g
     inkscape:label="Ebene 1"
     inkscape:groupmode="layer"
     id="layer1"
     transform="translate(130.92657,686.96242)">
    <g
       style="display:inline"
       transform="matrix(0.99999255,0.00386132,-0.00386132,0.99999255,1695.5232,914.67142)"
       id="layer1-9"
       inkscape:label="Ebene 1">
      <path
         sodipodi:type="inkscape:offset"
         inkscape:radius="-89.978439"
         inkscape:original="M 540.3125 270.71875 C 393.35818 271.59069 245.33706 271.04102 96.8125 280.5 C 96.551863 280.5179 96.291426 280.5388 96.03125 280.5625 C 52.056445 284.35431 9.6983631 300.75311 -25.34375 327.6875 C -25.35045 327.6925 -25.36826 327.6825 -25.375 327.6875 C -150.79806 423.87236 -242.16701 544.31663 -258.09375 700.3125 C -258.09382 700.3542 -258.09382 700.3958 -258.09375 700.4375 C -266.018 780.83224 -261.42958 859.23489 -261.40625 934.84375 C -261.41025 935.99121 -261.35775 937.13885 -261.25 938.28125 C -249.87009 1055.4338 -243.56107 1177.5809 -209.09375 1297.2812 C -209.07325 1297.3753 -209.05245 1297.4688 -209.03125 1297.5625 C -191.5665 1356.3741 -166.15586 1418.2376 -119.34375 1467.2812 C -119.17875 1467.4496 -119.01207 1467.6163 -118.84375 1467.7812 C -64.134151 1522.7803 8.5704385 1555.0581 82.65625 1566.5312 C 82.73955 1566.5422 82.82288 1566.5525 82.90625 1566.5625 C 128.11653 1573.2105 177.97766 1569.8786 222.40625 1546.25 L 222.4375 1546.2812 C 222.69479 1546.1535 222.93082 1546.0036 223.1875 1545.875 C 223.29256 1545.822 223.39504 1545.7714 223.5 1545.7188 L 223.5 1545.6875 C 277.73106 1518.424 318.26332 1475.1773 351.5625 1431.5625 L 351.59375 1431.5625 C 351.67015 1431.4624 351.73619 1431.3501 351.8125 1431.25 C 382.31092 1392.1206 410.85888 1354.1919 443.875 1324.1562 C 444.25768 1323.8103 444.63279 1323.4561 445 1323.0938 C 475.0608 1293.2067 496.57686 1265.3135 521.53125 1253.5625 C 521.54385 1253.5525 521.55 1253.5372 521.5625 1253.5312 C 578.98688 1227.235 649.93968 1212.0856 714.375 1168.7188 C 714.54264 1168.6055 714.70932 1168.491 714.875 1168.375 C 744.20604 1147.8775 760.42235 1113.7666 758.1875 1078.0938 L 758.25 1078.0938 C 758.237 1077.2748 758.14785 1076.4192 758.125 1075.5938 C 757.25087 1044.0093 749.02787 1007.8374 721.78125 980.15625 L 721.8125 980.125 C 721.5699 979.86247 721.30611 979.63565 721.0625 979.375 C 720.93396 979.24684 720.84812 979.09653 720.71875 978.96875 L 720.6875 979 C 682.43813 938.30772 631.91829 920.59473 587.5625 907.78125 C 587.41617 907.73705 587.27133 907.70035 587.125 907.65625 C 516.36074 886.34324 446.31505 880.50831 382.90625 865.0625 C 382.82345 865.0423 382.73899 865.0202 382.65625 865 C 369.4813 862.36063 352.24677 855.7064 361 845.59375 C 367.97482 837.14423 376.61326 831.19911 399.1875 825.5625 C 443.26211 815.57577 491.88458 815.71489 542.09375 817 C 617.16558 820.07866 691.87595 830.0072 764.5 847.6875 C 764.51 847.6895 764.52145 847.6855 764.53125 847.6875 C 789.01297 853.66011 808.83612 862.40304 819.1875 875 C 819.3926 875.24237 819.60096 875.48198 819.8125 875.71875 C 841.23053 900.40762 849.11898 939.1971 844.8125 976.46875 C 840.97902 1002.4553 833.50245 1030.4236 828.25 1061.3125 C 828.2029 1061.5894 828.14048 1061.8476 828.09375 1062.125 C 814.58289 1132.5904 802.0271 1206.2905 805.625 1282.7188 C 805.6438 1283.2611 805.67505 1283.8029 805.71875 1284.3438 C 811.68627 1348.5982 837.55657 1407.0539 869.34375 1458.1562 C 869.43625 1458.3132 869.53005 1458.4695 869.625 1458.625 C 905.37538 1514.0618 956.47194 1563.7982 1022.9688 1588.2812 C 1023.0839 1588.3253 1023.1972 1588.3633 1023.3125 1588.4062 C 1063.4495 1603.5024 1103.9291 1605.3417 1140.4375 1606.0625 L 1140.7188 1606.0625 C 1236.547 1608.6697 1334.7569 1598.8887 1427.875 1567.25 C 1428.1155 1567.169 1428.355 1567.0859 1428.5938 1567 C 1469.4006 1552.1359 1513.966 1531.0693 1546.4688 1491.25 C 1546.6487 1491.023 1546.8258 1490.7938 1547 1490.5625 C 1585.2987 1441.2572 1596.5588 1380.9455 1598.1875 1326.125 C 1598.1877 1326.052 1598.1877 1325.9792 1598.1875 1325.9062 C 1599.2739 1280.01 1590.9905 1236.7967 1582.3438 1196.3125 C 1567.8038 1112.8676 1560.9439 1028.5014 1573.3125 947.71875 C 1581.0772 906.45258 1595.6593 862.87993 1602.9688 814.03125 L 1603 814.03125 C 1603.052 813.73124 1603.073 813.42507 1603.125 813.125 C 1622.938 698.27392 1625.2413 579.01625 1603.0938 463.0625 C 1602.9914 462.52871 1602.8768 461.99727 1602.75 461.46875 C 1590.1975 409.05474 1555.6644 359.70456 1501.6875 337.625 C 1501.5827 337.5798 1501.4798 337.545 1501.375 337.5 C 1501.2052 337.431 1501.0452 337.34975 1500.875 337.28125 L 1500.875 337.3125 C 1458.0736 319.05212 1415.6026 316.19065 1379.5625 310.1875 C 1378.4961 310.0135 1377.4216 309.88832 1376.3438 309.8125 C 1317.6836 305.48902 1268.0744 337.63144 1235.0625 375.5625 C 1234.7748 375.90092 1234.4934 376.24475 1234.2188 376.59375 C 1223.6801 389.66678 1214.3724 400.12934 1205.875 405.8125 C 1205.5058 406.05565 1205.1412 406.3057 1204.7812 406.5625 C 1184.1106 421.52732 1159.9663 432.37899 1135.0625 437.875 C 1130.9548 438.10273 1123.0668 434.92927 1119.7812 425.65625 C 1110.9497 399.2365 1114.0652 376.75765 1101.1875 354.9375 L 1101.2188 354.9375 C 1101.1135 354.7483 1100.9811 354.59435 1100.875 354.40625 C 1100.5844 353.93615 1100.365 353.47026 1100.0625 353 L 1100 353.03125 C 1080.8623 320.27196 1049.1029 304.45287 1022.5938 294.78125 C 1022.3964 294.70655 1022.1986 294.63361 1022 294.5625 C 968.48378 276.1561 914.95815 276.05961 867 274.03125 C 866.78135 274.01885 866.56259 274.0083 866.34375 274 C 757.67646 271.3757 649.03113 270.44959 540.4375 270.71875 C 540.3958 270.71868 540.3542 270.71868 540.3125 270.71875 z "
         xlink:href="#path3143"
         style="fill:none;stroke:#000000;stroke-width:1px;stroke-linecap:butt;stroke-linejoin:miter;stroke-opacity:1"
         id="path3148"
         inkscape:href="#path3143"
         d="m 540.28125,360.6875 c -146.91085,0.86829 -292.54922,0.42298 -436.46875,9.53125 a 89.987437,89.987437 0 0 1 -0.0625,0 c -26.779692,2.30913 -52.994194,12.47467 -74.25,28.8125 a 89.987437,89.987437 0 0 1 -1.03125,0.78125 c -112.772164,86.71392 -184.12612,183.78274 -197.03125,309.375 a 89.987437,89.987437 0 0 1 0,0.0625 c -0.007,0.0637 -0.0247,0.12378 -0.0312,0.1875 -6.92264,70.43509 -2.99313,144.47223 -2.875,222.59375 11.50604,119.08335 18.28261,234.20905 48.84375,340.34375 0.0275,0.092 0.035,0.1889 0.0625,0.2812 15.48993,51.9472 36.329707,98.7135 67.875,132 38.855324,38.8792 93.26543,63.8607 150.53125,72.8438 A 89.987437,89.987437 0 0 1 96,1477.5312 c 31.30093,4.6027 60.8647,1.473 83.6875,-10.5 0.0593,-0.03 0.26746,-0.1177 0.34375,-0.1562 0.0302,-0.015 0.0919,-0.046 0.125,-0.062 a 89.987437,89.987437 0 0 1 1.3125,-0.625 89.987437,89.987437 0 0 1 0.4375,-0.25 89.987437,89.987437 0 0 1 0.375,-0.1875 89.987437,89.987437 0 0 1 0.375,-0.2188 89.987437,89.987437 0 0 1 0.0312,-0.031 89.987437,89.987437 0 0 1 0.40625,-0.2188 c 36.18944,-18.1934 67.60026,-49.8869 96.9375,-88.3124 a 89.987437,89.987437 0 0 1 0.0625,-0.063 c 0.10183,-0.1335 0.0495,-0.079 0.15625,-0.2187 a 89.987437,89.987437 0 0 1 0.59375,-0.75 c 29.46948,-37.8093 59.83016,-79.0632 100.71875,-116.6563 0.0825,-0.082 0.16761,-0.1677 0.25,-0.25 25.08075,-25.0356 44.67672,-59.6636 99.875,-86.125 0.33263,-0.1638 0.5982,-0.3371 0.9375,-0.5 a 89.987437,89.987437 0 0 1 0.5625,-0.25 89.987437,89.987437 0 0 1 0.90625,-0.4374 c 70.77674,-32.4107 132.46048,-45.8614 179.5,-77.3126 3.47777,-2.5413 5.08576,-5.8268 4.78125,-10.6874 a 89.987437,89.987437 0 0 1 -0.0312,-4.1876 l -0.0625,0 c 0.0748,4.7138 0.0607,4.1401 -0.0937,-1.4374 -0.49016,-17.7107 -4.37061,-28.3638 -10.375,-34.5938 -0.0213,-0.023 -0.0704,-0.1002 -0.0937,-0.125 -0.31833,-0.3392 -0.77525,-0.7895 -1.46875,-1.5312 -1.44289,-1.438 -1.65704,-1.6609 -2.5625,-2.5626 -20.15555,-20.5593 -51.37467,-33.5884 -91.09375,-45.06245 a 89.987437,89.987437 0 0 1 -1.0625,-0.3125 c 2.20155,0.66499 1.73143,0.53095 -0.34375,-0.0937 -0.01,-0.003 -0.0217,0.003 -0.0312,0 -58.82716,-17.71313 -125.12155,-23.4304 -197.4375,-40.84375 -13.06346,-2.54589 -26.46861,-4.23111 -50.1875,-20.125 -12.23161,-8.19633 -31.86238,-22.53056 -41.28125,-55.8125 -9.15337,-32.34379 4.9502,-70.63399 19.46875,-88.625 l -0.125,-0.0937 c 0.26514,-0.3212 0.63148,-0.64716 0.90625,-0.96875 0.15676,-0.18599 0.31202,-0.44393 0.46875,-0.625 l 0.0625,0.0625 C 310.56306,766.65596 346.3919,745.98624 377.375,738.25 a 89.987437,89.987437 0 0 1 1.9375,-0.4375 c 58.15986,-13.17826 113.56527,-12.06888 165.09375,-10.75 a 89.987437,89.987437 0 0 1 1.375,0.0312 c 80.54322,3.30304 161.11816,13.95249 240,33.15625 a 89.987437,89.987437 0 0 1 0,0.0312 89.987437,89.987437 0 0 1 0.0625,0 c 32.65758,7.96721 68.38823,16.97558 101.0625,55.5 0.31755,0.3744 0.65178,0.71374 0.96875,1.09375 0.28382,0.34028 0.5604,0.65518 0.84375,1 43.97138,51.43451 51.98276,112.52891 45.46875,168.90625 a 89.987437,89.987437 0 0 1 -0.375,2.8125 c -4.93822,33.47545 -12.45214,60.98605 -16.84375,86.81245 -0.70028,4.117 -0.77055,4.3029 -0.15625,0.6563 a 89.987437,89.987437 0 0 1 -0.34375,2 c -13.18125,68.7463 -23.81208,134.678 -21,198.1875 4.43752,44.951 23.39093,90.068 50.1875,133.1875 0.037,0.06 0.0567,0.128 0.0937,0.1875 27.8202,42.8664 65.1237,77.3174 108.3125,93.2188 a 89.987437,89.987437 0 0 1 0.625,0.2187 89.987437,89.987437 0 0 1 0.3125,0.125 89.987437,89.987437 0 0 1 0.1562,0.062 c 23.7028,8.878 52.3381,11.1582 87.0626,11.8438 l 0,0.031 a 89.987437,89.987437 0 0 1 0.9374,0 c 87.8367,2.3898 175.1519,-6.766 255.2188,-33.875 0.076,-0.028 0.1428,-0.066 0.2188,-0.094 0.1891,-0.069 0.3738,-0.118 0.5624,-0.1874 33.977,-12.5016 60.4954,-27.0336 77.1563,-47.1563 21.3422,-27.8195 30.5283,-66.8341 31.9063,-110.7813 a 89.987437,89.987437 0 0 1 0,-0.25 c 0.7987,-33.7432 -5.5084,-69.5145 -13.875,-108.6874 a 89.987437,89.987437 0 0 1 -0.6563,-3.3438 c -15.479,-88.834 -23.8528,-182.6896 -9.3125,-277.65625 a 89.987437,89.987437 0 0 1 0.5,-3 c 9.4219,-50.07342 23.2173,-91.10303 29.0938,-130.375 a 89.987437,89.987437 0 0 1 0.4062,-2.0625 l -0.031,0 c -0.9085,5.24114 -0.6774,3.84769 0.125,-0.8125 0.01,-0.0304 -0.01,-0.0633 0,-0.0937 18.1207,-105.09765 20.0036,-212.96265 0.5624,-316.0625 -6.9606,-28.16215 -24.6726,-51.48192 -47.4062,-60.78125 a 89.987437,89.987437 0 0 1 -0.125,-0.0625 c -4.7294,-1.92185 -4.7912,-1.93402 -0.2188,-0.0937 a 89.987437,89.987437 0 0 1 -1.0937,-0.4375 89.987437,89.987437 0 0 1 -0.125,-0.0625 c 4.1408,1.78592 4.0845,1.77186 -0.1875,-0.0625 a 89.987437,89.987437 0 0 1 -0.3125,-0.125 c -25.2932,-10.79086 -56.1255,-13.87346 -96.7813,-20.5 -21.8586,-1.19819 -45.3972,11.88677 -65.2187,34.375 -11.5062,14.34889 -22.0858,29.12853 -46.0313,45.5 -0.1642,0.11889 -0.3355,0.22524 -0.5,0.34375 -30.7709,22.17593 -65.469,37.7826 -102.5624,45.96875 a 89.987437,89.987437 0 0 1 -14.4376,1.96875 c -28.2971,1.56879 -44.7906,-5.5272 -62.7187,-17.4375 -17.9281,-11.9103 -34.2098,-31.60577 -42.3437,-54.5625 a 89.987437,89.987437 0 0 1 -0.5313,-1.53125 c -15.5479,-46.51211 -14.8617,-60.10056 -10.875,-53.65625 -0.1183,-0.21002 -0.091,-0.21108 -0.2187,-0.4375 -0.1208,-0.19397 -0.1817,-0.30902 -0.2813,-0.46875 -0.1153,-0.1849 -0.2567,-0.39194 -0.3437,-0.53125 A 89.987437,89.987437 0 0 1 1022.5,398.75 c -0.059,-0.0951 -0.2427,-0.4073 -0.2812,-0.46875 -0.014,-0.023 -0.049,-0.0395 -0.063,-0.0625 -3.6592,-6.09802 -11.9419,-12.1116 -29.99995,-18.75 C 956.12179,367.21954 913.57708,366.0687 863.1875,363.9375 a 89.987437,89.987437 0 0 1 -0.6875,-0.0312 c -107.11779,-2.56974 -214.33855,-3.48338 -321.65625,-3.21875 -0.0625,1.5e-4 -0.12499,-1.5e-4 -0.1875,0 a 89.987437,89.987437 0 0 1 -0.1875,0 c -0.0588,10e-5 -0.12875,10e-5 -0.1875,0 z m -436.8125,9.53125 c -0.16648,0.0106 -0.33353,0.0207 -0.5,0.0312 l 0,0.0312 c 0.17603,-0.0121 0.33165,-0.0494 0.5,-0.0625 z m 1261.59375,28.75 c 0,0.0104 0.2708,0.0521 0.4063,0.0625 -0.1437,-0.0238 -0.2624,-0.0386 -0.4063,-0.0625 z m -709.25,642.31245 c 0.27927,0.3023 0.16656,0.2094 0.40625,0.4688 0.28217,0.2788 0.19712,0.2007 0.5,0.5 a 89.987437,89.987437 0 0 1 -0.40625,-0.4688 89.987437,89.987437 0 0 1 -0.5,-0.5 z m 0.96875,1.0626 c 0.3876,0.4197 0.65734,0.701 0.875,0.9374 a 89.987437,89.987437 0 0 1 -0.5,-0.5624 c -0.2385,-0.2378 -0.14801,-0.1488 -0.375,-0.375 z M 453.84375,1194 c -2.50356,2.8273 -3.26577,4.2118 -2.46875,3.2188 0.38222,-0.4763 1.16367,-1.6176 2.46875,-3.2188 z" />
      <path
         style="fill:none;stroke:#000000;stroke-width:1px;stroke-linecap:butt;stroke-linejoin:miter;stroke-opacity:1"
         d="m 540.3125,270.71875 c -146.95432,0.87194 -294.97544,0.32227 -443.5,9.78125 -0.260637,0.0179 -0.521074,0.0388 -0.78125,0.0625 -43.974805,3.79181 -86.3328869,20.19061 -121.375,47.125 -0.0067,0.005 -0.02451,-0.005 -0.03125,0 -125.42306,96.18486 -216.79201,216.62913 -232.71875,372.625 -7e-5,0.0417 -7e-5,0.0833 0,0.125 -7.92425,80.39474 -3.33583,158.79739 -3.3125,234.40625 -0.004,1.14746 0.0485,2.2951 0.15625,3.4375 11.37991,117.15255 17.68893,239.29955 52.15625,358.99995 0.0205,0.094 0.0413,0.1876 0.0625,0.2813 17.46475,58.8116 42.87539,120.675 89.6875,169.7187 0.165,0.1683 0.33168,0.335 0.5,0.5 54.709599,54.9991 127.4141885,87.2768 201.5,98.75 0.0833,0.011 0.16663,0.021 0.25,0.031 45.21028,6.648 95.07141,3.3161 139.5,-20.3125 l 0.0312,0.031 c 0.25729,-0.1278 0.49332,-0.2776 0.75,-0.4062 0.10506,-0.053 0.20754,-0.1035 0.3125,-0.1562 l 0,-0.031 c 54.23106,-27.2635 94.76332,-70.5102 128.0625,-114.125 l 0.0312,0 c 0.0764,-0.1001 0.14244,-0.2124 0.21875,-0.3125 30.49842,-39.1294 59.04638,-77.0582 92.0625,-107.0938 0.38268,-0.3459 0.75779,-0.7001 1.125,-1.0624 30.0608,-29.8871 51.57686,-57.7803 76.53125,-69.5313 0.0126,-0.01 0.0187,-0.025 0.0312,-0.031 57.42438,-26.2963 128.37718,-41.4456 192.8125,-84.8124 0.16764,-0.1132 0.33432,-0.2278 0.5,-0.3438 29.33104,-20.4975 45.54735,-54.6083 43.3125,-90.2812 l 0.0625,0 c -0.013,-0.819 -0.10215,-1.6745 -0.125,-2.5 -0.87413,-31.5845 -9.09713,-67.7564 -36.34375,-95.43755 l 0.0312,-0.0312 c -0.2426,-0.26253 -0.50639,-0.48935 -0.75,-0.75 -0.12854,-0.12816 -0.21438,-0.27847 -0.34375,-0.40625 L 720.6875,979 c -38.24937,-40.69228 -88.76921,-58.40527 -133.125,-71.21875 -0.14633,-0.0442 -0.29117,-0.0809 -0.4375,-0.125 -70.76426,-21.31301 -140.80995,-27.14794 -204.21875,-42.59375 -0.0828,-0.0202 -0.16726,-0.0423 -0.25,-0.0625 -13.17495,-2.63937 -30.41398,-9.28804 -21.66075,-19.40069 6.97482,-8.44952 15.61776,-14.4002 38.192,-20.03681 44.07461,-9.98673 92.69708,-9.84761 142.90625,-8.5625 75.07183,3.07866 149.7822,13.0072 222.40625,30.6875 0.01,0.002 0.0214,-0.002 0.0312,0 24.48172,5.97261 44.30487,14.71554 54.65625,27.3125 0.2051,0.24237 0.41346,0.48198 0.625,0.71875 21.41803,24.68887 29.30648,63.47835 25,100.75 -3.83348,25.98655 -11.31005,53.95485 -16.5625,84.84375 -0.0471,0.2769 -0.10952,0.5351 -0.15625,0.8125 -13.51086,70.4654 -26.06665,144.1656 -22.46875,220.5938 0.0188,0.5423 0.05,1.0841 0.0937,1.625 5.96752,64.2544 31.83782,122.71 63.625,173.8124 0.0925,0.157 0.1863,0.3133 0.28125,0.4688 35.75038,55.4368 86.84699,105.1732 153.3438,129.6562 0.1152,0.044 0.2284,0.082 0.3437,0.125 40.137,15.0962 80.6166,16.9355 117.125,17.6563 0.091,0 0.1899,0 0.2813,0 95.8283,2.6072 194.0381,-7.1738 287.1562,-38.8125 0.2405,-0.081 0.4801,-0.1641 0.7188,-0.25 40.8068,-14.8641 85.3723,-35.9307 117.875,-75.75 0.1799,-0.227 0.357,-0.4562 0.5312,-0.6875 38.2987,-49.3053 49.5588,-109.617 51.1875,-164.4375 2e-4,-0.073 2e-4,-0.1459 0,-0.2188 1.0864,-45.8963 -7.1969,-89.1095 -15.8437,-129.5937 -14.54,-83.4449 -21.3999,-167.8111 -9.0313,-248.59375 7.7647,-41.26617 22.3469,-84.83882 29.6563,-133.6875 l 0.031,0 c 0.052,-0.30001 0.073,-0.60618 0.125,-0.90625 19.813,-114.85108 22.1165,-234.10875 -0.031,-350.0625 -0.1024,-0.53379 -0.217,-1.06523 -0.3438,-1.59375 -12.5525,-52.41401 -47.0856,-101.76419 -101.0625,-123.84375 -0.1048,-0.0452 -0.2077,-0.08 -0.3125,-0.125 -0.1698,-0.069 -0.3298,-0.15025 -0.5,-0.21875 l 0,0.0312 c -42.8014,-18.26038 -85.2724,-21.12185 -121.3125,-27.125 -1.0664,-0.174 -2.1408,-0.29918 -3.2187,-0.375 -58.6601,-4.32348 -108.2694,27.81894 -141.2813,65.75 -0.2877,0.33842 -0.569,0.68225 -0.8437,1.03125 -10.5386,13.07303 -19.8464,23.53559 -28.3438,29.21875 -0.3692,0.24315 -0.7339,0.4932 -1.0938,0.75 -20.6707,14.96482 -44.8149,25.81649 -69.7187,31.3125 -4.1077,0.22773 -12.0014,-2.9526 -15.287,-12.22562 -8.8316,-26.41975 -5.7103,-48.89173 -18.588,-70.71188 l 0.031,0 c -0.1053,-0.1892 -0.2377,-0.34315 -0.3438,-0.53125 -0.2906,-0.4701 -0.51,-0.93599 -0.8125,-1.40625 l -0.062,0.0312 c -19.1377,-32.75929 -50.8971,-48.57838 -77.4062,-58.25 -0.1973,-0.0747 -0.3953,-0.14754 -0.5939,-0.21865 -53.51622,-18.4064 -107.04185,-18.50289 -155,-20.53125 -0.21865,-0.0124 -0.43741,-0.0229 -0.65625,-0.0312 -108.66729,-2.6243 -217.31262,-3.55041 -325.90625,-3.28125 -0.0417,-7e-5 -0.0833,-7e-5 -0.125,0 z"
         id="path3143"
         inkscape:connector-curvature="0"
         sodipodi:nodetypes="cccccccccccccccccccccccccccccccscccccccccccccccccccccccccccccccccccccccccccccccccccccccccccccccc" />
    </g>
    <g
       id="g3928"
       transform="translate(28.666451,-69.618626)">
      <path
         style="fill:#008000;stroke:#000000;stroke-width:0;stroke-miterlimit:4;stroke-opacity:1;stroke-dasharray:none"
         d="m 1257.6602,692.90771 c -69.2436,-8.8263 -127.4423,-57.9715 -167.4453,-141.3969 -37.4327,-78.0653 -37.7098,-134.6861 -1.5569,-318.10203 20.1438,-102.19661 18.2704,-144.471896 -8.7953,-198.472856 -27.7965,-55.45913 -69.9856,-83.42022 -152.99672,-101.39967 -87.4278,-18.93604 -129.7148,-23.65997 -231.37957,-25.84764 -112.1608,-2.41352 -149.85331,2.14784 -192.97701,23.35314 -88.73859,43.63561 -94.70941,150.07225 -10.77868,192.142326 9.98638,5.00566 60.53114,17.33221 118.76118,28.96274 55.75645,11.13652 115.00165,24.90532 131.65598,30.5973 58.31415,19.93025 86.43295,43.35536 86.43295,72.00527 0,14.56438 -1.58002,16.81998 -18.88667,26.96235 -10.38772,6.08758 -49.2689,22.73953 -86.40265,37.0043 -37.13375,14.26474 -78.69623,31.89496 -92.36106,39.17825 -31.03111,16.53942 -105.54986,91.58062 -172.26026,173.46792 -91.55893,112.3891 -134.1905,135.9984 -214.18407,118.6147 C 185.51871,637.16251 125.91968,602.31351 96.714848,563.57151 61.649558,517.05521 35.196188,439.02071 19.742688,336.51208 -8.7435721,147.55252 -13.312562,-78.890496 9.6229779,-165.02917 31.042968,-245.47594 77.330378,-315.75511 153.04395,-382.78832 c 42.79682,-37.89028 69.563,-54.82343 96.99031,-61.35919 52.63827,-12.54337 637.98982,-16.46422 812.34324,-5.44129 59.6113,3.76872 108.4668,14.34537 117.4572,25.42806 2.2781,2.80831 6.3035,15.64613 8.9454,28.52849 15.819,77.13614 70.1699,119.94252 134.2977,105.7719 56.0379,-12.38295 90.4681,-32.46872 144.9646,-84.569 40.9964,-39.19382 49.2265,-42.13711 96.5002,-34.51104 65.6323,10.58761 93.244,25.82656 107.5657,59.36563 10.8833,25.48683 17.6926,91.23731 17.6148,170.09 -0.082,82.587784 -6.1951,130.624844 -30.4903,239.569964 -26.0059,116.616506 -26.2838,211.297176 -1.0456,356.292906 21.3705,122.7753 4.829,189.9152 -55.7787,226.3995 -27.0665,16.2933 -75.9463,31.7035 -134.4575,42.3898 -49.4371,9.0291 -166.4051,13.3344 -210.2908,7.7403 z"
         id="path3924" />
      <path
         sodipodi:nodetypes="csccccsssssssssssssssssssscssssssssssssssc"
         inkscape:connector-curvature="0"
         id="path3926"
         d="m -197.46918,913.05544 c 14.4737,-415.52371 5.44853,-1543.48527 7.29497,-1545.33171 1.56596,-1.56596 2068.78411,2.84677 2070.46991,4.39715 1.0567,0.97186 24.6307,1500.46202 0.2,1537.72099 -658.4478,20.40067 -1011.49474,1.37565 -2077.96488,3.21357 z M 1485.8625,779.16801 c 153.228,-28.4897 226.9024,-75.7439 259.1691,-166.2291 20.3934,-57.1887 22.4657,-120.1432 7.0031,-212.7405 -23.8783,-142.99431 -23.8428,-215.45701 0.1552,-317.612996 24.4392,-104.0332 31.4441,-161.78782 32.0342,-264.117784 0.5922,-102.70245 -7.1583,-168.76831 -24.1935,-206.22688 -30.6745,-67.44982 -75.7549,-97.84098 -168.6087,-113.6685 -86.4539,-14.73661 -130.5984,-1.98758 -185.5072,53.57486 -33.4963,33.89498 -61.1377,52.10927 -91.337,60.18634 -23.6283,6.3196 -24.5383,5.36651 -31.6568,-33.15359 -2.7342,-14.79559 -7.6433,-32.17965 -10.9091,-38.63123 -11.2125,-22.15004 -37.607,-46.35335 -62.9554,-57.72903 -49.3974,-22.16824 -84.9742,-26.36682 -265.80962,-31.36939 -175.68884,-4.86019 -558.42061,-2.28791 -655.23407,4.40372 -77.9466,5.38757 -109.70048,17.2532 -166.08955,62.06352 -119.1749521,94.70396 -189.429628,204.78838 -213.801113,335.01214 -10.820157,57.815154 -9.599217,269.02588 2.184583,377.91023 24.934982,230.40369 61.268718,344.36329 133.167528,417.67569 62.829542,64.0649 167.179772,105.4162 253.940422,100.6302 85.36558,-4.7092 145.03545,-44.2216 233.5233,-154.6352 22.56364,-28.1546 64.21057,-74.4283 92.54866,-102.8306 l 51.5238,-51.6403 40.95213,-15.4426 c 125.61399,-47.36766 159.63621,-64.49401 183.49691,-92.36992 18.5791,-21.7054 24.8252,-45.2528 22.4855,-84.768 -3.5967,-60.74323 -33.9569,-101.81355 -98.91306,-133.80633 -47.47974,-23.385136 -87.54907,-34.791336 -195.91876,-55.770496 -47.75342,-9.24453 -79.5469,-15.08332 -83.79101,-17.35469 -7.25476,-3.88263 -18.05379,-8.16913 -11.56996,-15.33371 14.55508,-16.0831697 41.30702,-21.4402797 117.15074,-23.4595897 126.09398,-3.35717 283.12635,20.3047597 323.78145,48.7879497 6.0549,4.24215 15.596,17.34348 21.2025,29.11406 16.82712,35.328126 16.97992,53.524386 1.1423,136.067006 -24.5481,127.94003 -25.0658,132.28722 -25.1155,210.90352 -0.055,86.9537 4.3638,107.3839 37.64392,174.0465 54.1568,108.4801 134.6163,171.9926 236.1412,186.4031 44.5205,6.3193 191.5003,1.5315 242.1638,-7.8884 z"
         style="fill:#008000;fill-opacity:1;stroke:#000000;stroke-width:0;stroke-miterlimit:4;stroke-opacity:1;stroke-dasharray:none" />
    </g>
    <path
       style="fill:none;stroke:#ffffff;stroke-width:19;stroke-linecap:butt;stroke-linejoin:miter;stroke-miterlimit:4;stroke-opacity:1;stroke-dasharray:none;stroke-dashoffset:19"
       d="m 269.35424,-503.70433 c -56.71389,26.31332 -94.10012,62.39517 -134.42705,108.90864 -35.650365,41.11947 -60.014157,86.95004 -77.959597,122.22086"
       id="path5395-8"
       inkscape:connector-curvature="0"
       sodipodi:nodetypes="csc" />
    <path
       style="fill:none;stroke:#ff0000;stroke-width:19;stroke-linecap:butt;stroke-linejoin:miter;stroke-miterlimit:4;stroke-opacity:1;stroke-dasharray:19, 19;stroke-dashoffset:0"
       d="m 271.12522,-504.54317 c -56.71389,26.31332 -94.10012,62.39517 -134.42706,108.90864 -35.65036,41.11947 -62.061745,90.53335 -80.007195,125.80417"
       id="path5395"
       inkscape:connector-curvature="0"
       sodipodi:nodetypes="csc" />
    <path
       style="fill:none;stroke:#ffffff;stroke-width:19;stroke-linecap:butt;stroke-linejoin:miter;stroke-miterlimit:4;stroke-opacity:1;stroke-dasharray:none;stroke-dashoffset:0"
       d="m 719.78415,106.39546 c 60.56411,17.62606 139.55527,44.23628 127.63859,83.5708 -6.1272,20.22462 -30.09933,28.91339 -70.27065,44.44057 -34.34629,13.27566 -81.7466,24.06911 -96.60914,34.30762"
       id="path5395-2-7"
       inkscape:connector-curvature="0"
       sodipodi:nodetypes="cssc" />
    <path
       style="fill:none;stroke:#ff0000;stroke-width:19;stroke-linecap:butt;stroke-linejoin:miter;stroke-miterlimit:4;stroke-opacity:1;stroke-dasharray:19, 19;stroke-dashoffset:0"
       d="m 720.49905,106.39546 c 60.56411,17.62606 139.55527,44.23628 127.63859,83.5708 -6.1272,20.22462 -30.09933,28.91339 -70.27065,44.44057 -34.34629,13.27566 -88.98598,26.96486 -103.84852,37.20337"
       id="path5395-2"
       inkscape:connector-curvature="0"
       sodipodi:nodetypes="cssc" />
    <path
       style="fill:none;stroke:#ffffff;stroke-width:19;stroke-linecap:butt;stroke-linejoin:miter;stroke-miterlimit:4;stroke-opacity:1;stroke-dasharray:none;stroke-dashoffset:0"
       d="m 818.67399,-53.643164 c -115.76513,-14.53354 -249.21069,-1.42397 -252.84444,8.73828 -3.63219,14.81137 115.77467,29.01247 167.45934,39.7628798"
       id="path5395-2-71-2"
       inkscape:connector-curvature="0"
       sodipodi:nodetypes="ccc" />
    <path
       style="fill:none;stroke:#ff0000;stroke-width:19;stroke-linecap:butt;stroke-linejoin:miter;stroke-miterlimit:4;stroke-opacity:1;stroke-dasharray:19, 19;stroke-dashoffset:0"
       d="m 818.9338,-53.291182 c -115.76513,-14.533532 -249.21069,-1.423965 -252.84444,8.738287 -3.63219,14.811365 115.77467,29.012466 167.45934,39.7628781"
       id="path5395-2-71"
       inkscape:connector-curvature="0"
       sodipodi:nodetypes="ccc" />
    <path
       style="fill:none;stroke:#ffffff;stroke-width:19;stroke-linecap:butt;stroke-linejoin:miter;stroke-miterlimit:4;stroke-opacity:1;stroke-dasharray:none;stroke-dashoffset:0"
       d="m 1278.5614,-570.15709 c 50.7406,33.97032 28.0575,111.51039 56.277,107.19387 62.2462,-16.31797 82.4736,-61.11783 137.7781,-93.07978"
       id="path5395-2-71-6-0"
       inkscape:connector-curvature="0"
       sodipodi:nodetypes="ccc" />
    <path
       style="fill:none;stroke:#ff0000;stroke-width:19;stroke-linecap:butt;stroke-linejoin:miter;stroke-miterlimit:4;stroke-opacity:1;stroke-dasharray:19, 19;stroke-dashoffset:0"
       d="m 1278.6424,-569.96546 c 50.7406,33.97032 28.0575,111.51039 56.277,107.19387 62.2462,-16.31797 74.5103,-50.62073 126.1951,-86.56434"
       id="path5395-2-71-6"
       inkscape:connector-curvature="0"
       sodipodi:nodetypes="ccc" />
    <path
       style="fill:none;stroke:#ffffff;stroke-width:19;stroke-linecap:butt;stroke-linejoin:miter;stroke-miterlimit:4;stroke-opacity:1;stroke-dasharray:none;stroke-dashoffset:0"
       d="m 1585.2591,-472.75512 c 61.2881,16.90212 92.5856,10.81917 112.4359,69.09204 16.4732,48.35885 9.6081,166.54686 10.4851,217.74432"
       id="path5395-4-9"
       inkscape:connector-curvature="0"
       sodipodi:nodetypes="csc" />
    <path
       style="fill:none;stroke:#ff0000;stroke-width:19;stroke-linecap:butt;stroke-linejoin:miter;stroke-miterlimit:4;stroke-opacity:1;stroke-dasharray:19, 19;stroke-dashoffset:0"
       d="m 1585.3396,-472.38792 c 61.2881,16.90212 92.5856,10.81917 112.4359,69.09204 16.4732,48.35885 9.6081,166.54686 10.4851,217.74432"
       id="path5395-4"
       inkscape:connector-curvature="0"
       sodipodi:nodetypes="csc" />
    <path
       style="fill:none;stroke:#ffffff;stroke-width:19;stroke-linecap:butt;stroke-linejoin:miter;stroke-miterlimit:4;stroke-opacity:1;stroke-dasharray:none;stroke-dashoffset:0"
       d="m 1674.172,321.50512 c 16.404,112.46197 19.4563,143.79414 -3.3942,196.50517 -18.1758,41.92775 -78.4276,65.74374 -114.0322,75.85243"
       id="path5395-4-4-6"
       inkscape:connector-curvature="0"
       sodipodi:nodetypes="csc" />
    <path
       style="fill:none;stroke:#ff0000;stroke-width:19;stroke-linecap:butt;stroke-linejoin:miter;stroke-miterlimit:4;stroke-opacity:1;stroke-dasharray:19, 19;stroke-dashoffset:0"
       d="m 1674.0914,321.50498 c 16.404,112.46197 19.4563,143.79414 -3.3942,196.50517 -18.1758,41.92775 -78.4276,65.74374 -114.0322,75.85243"
       id="path5395-4-4"
       inkscape:connector-curvature="0"
       sodipodi:nodetypes="csc" />
    <path
       style="fill:none;stroke:#ffffff;stroke-width:19;stroke-linecap:butt;stroke-linejoin:miter;stroke-miterlimit:4;stroke-opacity:1;stroke-dasharray:none;stroke-dashoffset:0"
       d="m 443.49413,499.56391 c -52.7321,60.33842 -89.13444,75.79807 -134.06505,77.77931 -45.65352,2.01311 -134.17084,-38.86534 -162.17409,-71.10703"
       id="path5395-4-4-0-3"
       inkscape:connector-curvature="0"
       sodipodi:nodetypes="csc" />
    <path
       style="fill:none;stroke:#ff0000;stroke-width:19;stroke-linecap:butt;stroke-linejoin:miter;stroke-miterlimit:4;stroke-opacity:1;stroke-dasharray:19, 19;stroke-dashoffset:0"
       d="m 443.95821,499.13194 c -52.7321,60.33842 -89.13444,75.79807 -134.06505,77.77931 -45.65352,2.01311 -134.17084,-38.86534 -162.17409,-71.10703"
       id="path5395-4-4-0"
       inkscape:connector-curvature="0"
       sodipodi:nodetypes="csc" />
    <path
       style="fill:none;stroke:#40403f;stroke-width:10;stroke-linecap:butt;stroke-linejoin:miter;stroke-opacity:1;stroke-miterlimit:4;stroke-dasharray:none"
       d="m 17.374517,1138.0309 c 27.509653,68.0502 41.988417,107.1428 41.988417,107.1428 l 59.362936,81.0811 86.87259,76.7375 127.41312,41.9884 130.30888,7.2394 128.86101,-24.6139"
       id="path5683"
       inkscape:connector-curvature="0"
       transform="translate(-130.92657,-686.96242)" />
    <path
       style="fill:none;stroke:#404040;stroke-width:10;stroke-linecap:butt;stroke-linejoin:miter;stroke-opacity:1;stroke-miterlimit:4;stroke-dasharray:none"
       d="m 1034.0413,1153.9545 20.4761,100.3327 59.3805,110.5708 106.4756,73.7138"
       id="path5685"
       inkscape:connector-curvature="0"
       transform="translate(-130.92657,-686.96242)" />
    <path
       style="fill:none;stroke:#404040;stroke-width:10;stroke-linecap:butt;stroke-linejoin:miter;stroke-opacity:1;stroke-miterlimit:4;stroke-dasharray:none"
       d="M 8.6872587,405.40541 52.123552,286.67954 118.72587,185.32819 228.76448,83.976834 390.92664,14.478764"
       id="path5687"
       inkscape:connector-curvature="0"
       transform="translate(-130.92657,-686.96242)" />
    <path
       style="fill:none;stroke:#404040;stroke-width:10;stroke-linecap:butt;stroke-linejoin:miter;stroke-opacity:1;stroke-miterlimit:4;stroke-dasharray:none"
       d="m 1714.2857,34.749035 136.1004,37.644787 98.4556,92.664098 43.4363,133.20463"
       id="path5689"
       inkscape:connector-curvature="0"
       transform="translate(-130.92657,-686.96242)" />
    <path
       style="fill:none;stroke:#404040;stroke-width:10;stroke-linecap:butt;stroke-linejoin:miter;stroke-opacity:1;stroke-miterlimit:4;stroke-dasharray:none"
       d="m 1140.9266,480.69498 121.6217,55.01931 75.2895,124.51737 11.583,162.16216"
       id="path5691"
       inkscape:connector-curvature="0"
       transform="translate(-130.92657,-686.96242)" />
    <path
       style="fill:none;stroke:#ffffff;stroke-width:19;stroke-linecap:butt;stroke-linejoin:miter;stroke-miterlimit:4;stroke-opacity:1;stroke-dasharray:none;stroke-dashoffset:0"
       d="M 1021.1369,118.1996 C 1029.2156,74.29091 1030.7977,34.39487 1009.0554,3.0493698 995.97064,-17.55367 960.93521,-32.38155 933.99923,-37.732546"
       id="path5395-4-4-0-6-4"
       inkscape:connector-curvature="0"
       sodipodi:nodetypes="ccc" />
    <path
       style="fill:none;stroke:#ff0000;stroke-width:19;stroke-linecap:butt;stroke-linejoin:miter;stroke-miterlimit:4;stroke-opacity:1;stroke-dasharray:19, 19;stroke-dashoffset:0"
       d="M 1021.2953,117.86216 C 1029.374,73.953468 1030.9561,34.057425 1009.2138,2.7119283 996.12906,-17.891107 961.09363,-32.718987 934.15765,-38.069991"
       id="path5395-4-4-0-6"
       inkscape:connector-curvature="0"
       sodipodi:nodetypes="ccc" />
    <path
       sodipodi:type="arc"
       style="fill:#003b00;fill-opacity:1;stroke:#ffffff;stroke-width:0;stroke-miterlimit:4;stroke-opacity:1;stroke-dasharray:none;stroke-dashoffset:19"
       id="path5749"
       sodipodi:cx="353.28186"
       sodipodi:cy="967.18146"
       sodipodi:rx="55.019306"
       sodipodi:ry="55.019306"
       d="m 408.30117,967.18146 a 55.019306,55.019306 0 1 1 -110.03862,0 55.019306,55.019306 0 1 1 110.03862,0 z"
       transform="translate(-130.92657,-686.96242)" />
    <path
       sodipodi:type="arc"
       style="fill:#003b00;fill-opacity:1;stroke:#ffffff;stroke-width:0;stroke-miterlimit:4;stroke-opacity:1;stroke-dasharray:none;stroke-dashoffset:19"
       id="path5751"
       sodipodi:cx="425.67569"
       sodipodi:cy="527.02704"
       sodipodi:rx="55.019306"
       sodipodi:ry="55.019306"
       d="m 480.695,527.02704 a 55.019306,55.019306 0 1 1 -110.03862,0 55.019306,55.019306 0 1 1 110.03862,0 z"
       transform="translate(-130.92657,-686.96242)" />
    <path
       sodipodi:type="arc"
       style="fill:#003b00;fill-opacity:1;stroke:#ffffff;stroke-width:0;stroke-miterlimit:4;stroke-opacity:1;stroke-dasharray:none;stroke-dashoffset:19"
       id="path5753"
       sodipodi:cx="703.66797"
       sodipodi:cy="283.78378"
       sodipodi:rx="49.227798"
       sodipodi:ry="49.227798"
       d="m 752.89577,283.78378 a 49.227798,49.227798 0 1 1 -98.4556,0 49.227798,49.227798 0 1 1 98.4556,0 z"
       transform="translate(-130.92657,-686.96242)" />
    <path
       sodipodi:type="arc"
       style="fill:#003b00;fill-opacity:1;stroke:#ffffff;stroke-width:0;stroke-miterlimit:4;stroke-opacity:1;stroke-dasharray:none;stroke-dashoffset:19"
       id="path5755"
       sodipodi:cx="1261.1003"
       sodipodi:cy="293.91891"
       sodipodi:rx="47.779922"
       sodipodi:ry="47.779922"
       d="m 1308.8803,293.91891 a 47.779922,47.779922 0 1 1 -95.5599,0 47.779922,47.779922 0 1 1 95.5599,0 z"
       transform="translate(-130.92657,-686.96242)" />
    <path
       sodipodi:type="arc"
       style="fill:#003b00;fill-opacity:1;stroke:#ffffff;stroke-width:0;stroke-miterlimit:4;stroke-opacity:1;stroke-dasharray:none;stroke-dashoffset:19"
       id="path5757"
       sodipodi:cx="1612.9343"
       sodipodi:cy="367.76062"
       sodipodi:rx="52.12355"
       sodipodi:ry="52.12355"
       d="m 1665.0579,367.76062 a 52.12355,52.12355 0 1 1 -104.2471,0 52.12355,52.12355 0 1 1 104.2471,0 z"
       transform="translate(-130.92657,-686.96242)" />
    <path
       sodipodi:type="arc"
       style="fill:#003b00;fill-opacity:1;stroke:#ffffff;stroke-width:0;stroke-miterlimit:4;stroke-opacity:1;stroke-dasharray:none;stroke-dashoffset:19"
       id="path5759"
       sodipodi:cx="1589.7683"
       sodipodi:cy="773.16602"
       sodipodi:rx="55.019306"
       sodipodi:ry="55.019306"
       d="m 1644.7876,773.16602 a 55.019306,55.019306 0 1 1 -110.0386,0 55.019306,55.019306 0 1 1 110.0386,0 z"
       transform="translate(-130.92657,-686.96242)" />
    <path
       sodipodi:type="arc"
       style="fill:#003b00;fill-opacity:1;stroke:#ffffff;stroke-width:0;stroke-miterlimit:4;stroke-opacity:1;stroke-dasharray:none;stroke-dashoffset:19"
       id="path5761"
       sodipodi:cx="1395.7529"
       sodipodi:cy="1062.7413"
       sodipodi:rx="52.12355"
       sodipodi:ry="52.12355"
       d="m 1447.8765,1062.7413 a 52.12355,52.12355 0 1 1 -104.2471,0 52.12355,52.12355 0 1 1 104.2471,0 z"
       transform="translate(-130.92657,-686.96242)" />
    <path
       sodipodi:type="arc"
       style="fill:#003b00;fill-opacity:1;stroke:#ffffff;stroke-width:0;stroke-miterlimit:4;stroke-opacity:1;stroke-dasharray:none;stroke-dashoffset:19"
       id="path5763"
       sodipodi:cx="883.20465"
       sodipodi:cy="350.38611"
       sodipodi:rx="43.436295"
       sodipodi:ry="43.436295"
       d="m 926.64095,350.38611 a 43.436295,43.436295 0 1 1 -86.87259,0 43.436295,43.436295 0 1 1 86.87259,0 z"
       transform="translate(-130.92657,-686.96242)" />
    <path
       sodipodi:type="arc"
       style="fill:#003b00;fill-opacity:1;stroke:#ffffff;stroke-width:0;stroke-miterlimit:4;stroke-opacity:1;stroke-dasharray:none;stroke-dashoffset:19"
       id="path5765"
       sodipodi:cx="721.04248"
       sodipodi:cy="396.71814"
       sodipodi:rx="40.540539"
       sodipodi:ry="40.540539"
       d="m 761.58302,396.71814 a 40.540539,40.540539 0 1 1 -81.08108,0 40.540539,40.540539 0 1 1 81.08108,0 z"
       transform="translate(-130.92657,-686.96242)" />
    <path
       sodipodi:type="arc"
       style="fill:#003b00;fill-opacity:1;stroke:#ffffff;stroke-width:0;stroke-miterlimit:4;stroke-opacity:1;stroke-dasharray:none;stroke-dashoffset:19"
       id="path5767"
       sodipodi:cx="784.74902"
       sodipodi:cy="263.51352"
       sodipodi:rx="43.436295"
       sodipodi:ry="43.436295"
       d="m 828.18532,263.51352 a 43.436295,43.436295 0 1 1 -86.87259,0 43.436295,43.436295 0 1 1 86.87259,0 z"
       transform="translate(-104.86479,-678.27516)" />
    <path
       sodipodi:type="arc"
       style="fill:#003b00;fill-opacity:1;stroke:#ffffff;stroke-width:0;stroke-miterlimit:4;stroke-opacity:1;stroke-dasharray:none;stroke-dashoffset:19"
       id="path5767-5"
       sodipodi:cx="784.74902"
       sodipodi:cy="263.51352"
       sodipodi:rx="43.436295"
       sodipodi:ry="43.436295"
       d="m 828.18532,263.51352 a 43.436295,43.436295 0 1 1 -86.87259,0 43.436295,43.436295 0 1 1 86.87259,0 z"
       transform="translate(-837.49026,-817.2713)" />
    <path
       sodipodi:type="arc"
       style="fill:#003b00;fill-opacity:1;stroke:#ffffff;stroke-width:0;stroke-miterlimit:4;stroke-opacity:1;stroke-dasharray:none;stroke-dashoffset:19"
       id="path5767-8"
       sodipodi:cx="784.74902"
       sodipodi:cy="263.51352"
       sodipodi:rx="43.436295"
       sodipodi:ry="43.436295"
       d="m 828.18532,263.51352 a 43.436295,43.436295 0 1 1 -86.87259,0 43.436295,43.436295 0 1 1 86.87259,0 z"
       transform="translate(-377.06556,120.95263)" />
    <path
       sodipodi:type="arc"
       style="fill:#003b00;fill-opacity:1;stroke:#ffffff;stroke-width:0;stroke-miterlimit:4;stroke-opacity:1;stroke-dasharray:none;stroke-dashoffset:19"
       id="path5767-81"
       sodipodi:cx="784.74902"
       sodipodi:cy="263.51352"
       sodipodi:rx="43.436295"
       sodipodi:ry="43.436295"
       d="m 828.18532,263.51352 a 43.436295,43.436295 0 1 1 -86.87259,0 43.436295,43.436295 0 1 1 86.87259,0 z"
       transform="translate(-104.86478,372.88313)" />
    <path
       sodipodi:type="arc"
       style="fill:#003b00;fill-opacity:1;stroke:#ffffff;stroke-width:0;stroke-miterlimit:4;stroke-opacity:1;stroke-dasharray:none;stroke-dashoffset:19"
       id="path5767-2"
       sodipodi:cx="784.74902"
       sodipodi:cy="263.51352"
       sodipodi:rx="43.436295"
       sodipodi:ry="43.436295"
       d="m 828.18532,263.51352 a 43.436295,43.436295 0 1 1 -86.87259,0 43.436295,43.436295 0 1 1 86.87259,0 z"
       transform="translate(34.131355,190.45071)" />
    <path
       sodipodi:type="arc"
       style="fill:#003b00;fill-opacity:1;stroke:#ffffff;stroke-width:0;stroke-miterlimit:4;stroke-opacity:1;stroke-dasharray:none;stroke-dashoffset:19"
       id="path5767-1"
       sodipodi:cx="784.74902"
       sodipodi:cy="263.51352"
       sodipodi:rx="43.436295"
       sodipodi:ry="43.436295"
       d="m 828.18532,263.51352 a 43.436295,43.436295 0 1 1 -86.87259,0 43.436295,43.436295 0 1 1 86.87259,0 z"
       transform="translate(755.17383,213.61672)" />
    <path
       sodipodi:type="arc"
       style="fill:#003b00;fill-opacity:1;stroke:#ffffff;stroke-width:0;stroke-miterlimit:4;stroke-opacity:1;stroke-dasharray:none;stroke-dashoffset:19"
       id="path5767-4"
       sodipodi:cx="784.74902"
       sodipodi:cy="263.51352"
       sodipodi:rx="43.436295"
       sodipodi:ry="43.436295"
       d="m 828.18532,263.51352 a 43.436295,43.436295 0 1 1 -86.87259,0 43.436295,43.436295 0 1 1 86.87259,0 z"
       transform="translate(581.42866,-356.8466)" />
  </g>
  <g
     inkscape:groupmode="layer"
     id="layer2"
     inkscape:label="Ebene" />
</svg>
